<svg width="111" height="367" viewBox="0 0 111 367" xmlns="http://www.w3.org/2000/svg"><title>Body</title><defs><linearGradient x1="0%" y1="52.8%" y2="52.78%" id="a"><stop stop-color="#E9E8EE" offset="0%"/><stop stop-color="#F9FAFE" offset="46.355%"/><stop stop-color="#C9CACE" offset="100%"/></linearGradient></defs><path d="M106.447 365V229l4.5-65V78.5l-2.25-52.5c-.833-14.333-6.25-22.5-16.25-24.5s-26.833-2-50.5 0c-8.667 0-15.333 7.333-20 22-7 22-32 156-17.5 323.5.333.667 4.833.667 13.5 0l6.5-12c-2-8-5-14.5-9-19.5l2.5-111 8 1 3.5 38 1 123c14.333-11 25.833-16.667 34.5-17 8.667-.333 22.5 4.833 41.5 15.5z" fill="url(#a)" fill-rule="evenodd"/></svg>