<?xml version="1.0" encoding="UTF-8"?>
<svg width="52px" height="69px" viewBox="0 0 52 69" version="1.1" xmlns="http://www.w3.org/2000/svg" xmlns:xlink="http://www.w3.org/1999/xlink">
    <!-- Generator: Sketch 47.1 (45422) - http://www.bohemiancoding.com/sketch -->
    <title>Gomme</title>
    <desc>Created with Sketch.</desc>
    <defs>
        <linearGradient x1="0%" y1="50%" x2="100%" y2="38.1950827%" id="linearGradient-1">
            <stop stop-color="#EEEEEE" stop-opacity="0.8" offset="0%"></stop>
            <stop stop-color="#FFFFFF" stop-opacity="0.8" offset="32.684949%"></stop>
            <stop stop-color="#D8D8D8" stop-opacity="0.6" offset="100%"></stop>
        </linearGradient>
    </defs>
    <g id="Page-1" stroke="none" stroke-width="1" fill="none" fill-rule="evenodd">
        <g id="Artboard" transform="translate(-481.000000, -9.000000)">
            <g id="Gomme" transform="translate(481.000000, 9.000000)">
                <g id="Group" transform="translate(4.000000, 16.000000)">
                    <path d="M5,27 L5,1 C11.6666667,0.333333333 18.1666667,1.07392104e-15 24.5,0 C30.8333333,0 36,0.333333333 40,1 L40,27 L5,27 Z" id="Path-3" fill="#E3E3E3"></path>
                    <path d="M0,51.5 L0,24 C7.66666667,25 15.1666667,25.5 22.5,25.5 C29.8333333,25.5 37,25 44,24 L44,52 L0,51.5 Z" id="Path-2" fill="#E6E7E9"></path>
                </g>
                <path d="M0,68.5 L0,9 C2,3.33333333 10.8333333,0.5 26.5,0.5 C42.1666667,0.5 50.6666667,3.33333333 52,9 L52,68.5 L0,68.5 Z" id="Path-4" fill="url(#linearGradient-1)"></path>
            </g>
        </g>
    </g>
</svg>