<svg xmlns="http://www.w3.org/2000/svg" viewBox="5908.253 -8273.197 47.036 29.879">
  <g id="Groupe_562" data-name="Groupe 562" transform="translate(5908.253 -8273.198)">
    <path id="Tracé_288" data-name="Tracé 288" class="cls-1" d="M.039,14.192A14.9,14.9,0,0,1,14.94.013,15.142,15.142,0,0,1,24.918,3.7a53.232,53.232,0,0,1-3.787,3.923c-3.4-2.346-8.224-3.017-11.619-.307C4.654,10.676,4.433,18.607,9.1,22.223c4.543,4.123,13.131,2.076,14.386-4.236-2.846-.043-5.7,0-8.545-.093-.007-1.7-.014-3.395-.007-5.092,4.757-.014,9.514-.021,14.279.014.285,3.994-.242,8.245-2.7,11.548-3.716,5.228-11.176,6.754-17,4.515A14.951,14.951,0,0,1,.039,14.192Z" transform="translate(0 0)"/>
    <path id="Tracé_289" data-name="Tracé 289" class="cls-1" d="M71.892,16.829h4.244c.007,1.419.014,2.846.028,4.265,1.419.015,2.846.015,4.265.029v4.244c-1.419.014-2.838.021-4.265.036q-.021,2.139-.028,4.265H71.884c-.014-1.419-.014-2.839-.028-4.258l-4.265-.043V21.124c1.419-.014,2.839-.021,4.265-.029C71.863,19.667,71.877,18.248,71.892,16.829Z" transform="translate(-33.393 -8.314)"/>
  </g>
</svg>