<svg xmlns="http://www.w3.org/2000/svg" viewBox="5856.482 -8274.207 32.8 32.8">
  <g id="Groupe_561" data-name="Groupe 561" transform="translate(5856.482 -8274.208)">
    <path id="Tracé_285" data-name="Tracé 285" class="cls-1" d="M16.4,2.955c4.379,0,4.9.017,6.627.1a9.1,9.1,0,0,1,3.045.565,5.076,5.076,0,0,1,1.886,1.227,5.086,5.086,0,0,1,1.227,1.886,9.069,9.069,0,0,1,.565,3.045c.079,1.729.1,2.248.1,6.627s-.017,4.9-.1,6.627a9.072,9.072,0,0,1-.565,3.045,5.433,5.433,0,0,1-3.113,3.113,9.079,9.079,0,0,1-3.045.565c-1.729.079-2.248.1-6.627.1s-4.9-.017-6.627-.1a9.068,9.068,0,0,1-3.045-.565,5.076,5.076,0,0,1-1.886-1.227,5.082,5.082,0,0,1-1.227-1.886,9.082,9.082,0,0,1-.565-3.045c-.079-1.729-.1-2.248-.1-6.627s.017-4.9.1-6.627a9.085,9.085,0,0,1,.565-3.045A5.082,5.082,0,0,1,4.842,4.842,5.082,5.082,0,0,1,6.728,3.615,9.069,9.069,0,0,1,9.773,3.05c1.729-.079,2.248-.1,6.627-.1M16.4,0c-4.454,0-5.012.019-6.762.1A12.039,12.039,0,0,0,5.657.861a8.037,8.037,0,0,0-2.9,1.891,8.037,8.037,0,0,0-1.891,2.9A12.052,12.052,0,0,0,.1,9.638C.019,11.387,0,11.946,0,16.4s.019,5.012.1,6.762a12.055,12.055,0,0,0,.762,3.981,8.044,8.044,0,0,0,1.891,2.9,8.037,8.037,0,0,0,2.9,1.891,12.049,12.049,0,0,0,3.981.762c1.749.08,2.308.1,6.762.1s5.012-.019,6.762-.1a12.048,12.048,0,0,0,3.981-.762,8.382,8.382,0,0,0,4.8-4.8,12.049,12.049,0,0,0,.762-3.981c.08-1.749.1-2.308.1-6.762s-.019-5.012-.1-6.762a12.046,12.046,0,0,0-.762-3.981,8.035,8.035,0,0,0-1.891-2.905A8.043,8.043,0,0,0,27.142.861,12.048,12.048,0,0,0,23.161.1C21.412.019,20.854,0,16.4,0Z" transform="translate(0 0)"/>
    <path id="Tracé_286" data-name="Tracé 286" class="cls-1" d="M24.191,15.769a8.422,8.422,0,1,0,8.422,8.422,8.422,8.422,0,0,0-8.422-8.422Zm0,13.888a5.467,5.467,0,1,1,5.467-5.467,5.467,5.467,0,0,1-5.467,5.467Z" transform="translate(-7.791 -7.791)"/>
    <path id="Tracé_287" data-name="Tracé 287" class="cls-1" d="M49.764,13.189A1.968,1.968,0,1,1,47.8,11.221a1.968,1.968,0,0,1,1.968,1.968Z" transform="translate(-22.641 -5.544)"/>
  </g>
</svg>