<svg width="555" height="84" viewBox="0 0 555 84" xmlns="http://www.w3.org/2000/svg" xmlns:xlink="http://www.w3.org/1999/xlink"><title>Tube</title><defs><linearGradient x1="0%" y1="40.888%" y2="40.888%" id="b"><stop stop-color="#464646" offset="0%"/><stop stop-color="#ABABAB" offset="43.206%"/><stop stop-color="#353535" offset="100%"/></linearGradient><path d="M1.495 5.5l2.66 15.497-2.038 3.445L0 89c3.655 88 5.483 145.5 5.483 172.5v144c4.652 81 14.123 130.5 28.412 148.5h21.932c13.956-24 22.596-63.5 25.92-118.5 4.984-82.5-6.98-87.5 0-315.5l-.5-2.5.5-37-2.982-53.492-3.35-8.435L77.26 0 1.495 5.5z" id="a"/><linearGradient x1="7.348%" y1="52.155%" x2="92.28%" y2="52.155%" id="c"><stop stop-color="#A3A3A3" offset="0%"/><stop stop-color="#FFF" offset="34.242%"/><stop stop-color="#FFF" offset="47.914%"/><stop stop-color="#9C9C9C" offset="100%"/></linearGradient></defs><g transform="rotate(90 277 277.5)" fill="none" fill-rule="evenodd"><mask id="d" fill="#fff"><use xlink:href="#a"/></mask><use fill-opacity=".7" fill="url(#b)" xlink:href="#a"/><path d="M81.5 113.561c-4.667 27.998-12.333 41.997-23 41.997S37.333 144.892 27 123.56C10.333 88.23 1.167 76.564-.5 88.563H-8v363.971H7c21 4 45.5 44.497 72 9h14V113.06l-11.5.5z" fill="url(#c)" mask="url(#d)"/></g></svg>