<?xml version="1.0" encoding="UTF-8"?>
<svg width="83px" height="392px" viewBox="0 0 83 392" version="1.1" xmlns="http://www.w3.org/2000/svg" xmlns:xlink="http://www.w3.org/1999/xlink">
    <!-- Generator: Sketch 47.1 (45422) - http://www.bohemiancoding.com/sketch -->
    <title>Path 8</title>
    <desc>Created with Sketch.</desc>
    <defs>
        <linearGradient x1="7.34839109%" y1="52.154517%" x2="92.2803218%" y2="52.1545172%" id="linearGradient-1">
            <stop stop-color="#A3A3A3" offset="0%"></stop>
            <stop stop-color="#FFFFFF" offset="34.2418033%"></stop>
            <stop stop-color="#FFFFFF" offset="47.9143898%"></stop>
            <stop stop-color="#9C9C9C" offset="100%"></stop>
        </linearGradient>
    </defs>
    <g id="Page-1" stroke="none" stroke-width="1" fill="none" fill-rule="evenodd">
        <g id="Artboard" transform="translate(-469.000000, -503.000000)" fill="url(#linearGradient-1)">
            <g id="Tube" transform="translate(469.000000, 419.000000)">
                <path d="M81.5,113.561051 C76.8333333,141.558844 69.1666667,155.557741 58.5,155.557741 C47.8333333,155.557741 37.3333333,144.891915 27,123.560263 C10.3333333,88.2297136 1.16666667,76.5639663 -0.5,88.5630207 C-0.5,88.5630207 -3,88.5630207 -8,88.5630207 L-8,452.534338 C2.33333333,452.534338 7.33333333,452.534338 7,452.534338 C28,456.534023 52.5,497.030832 79,461.533629 C79,461.533629 83.6666667,461.533629 93,461.533629 L93,113.06109 L81.5,113.561051 Z" id="Path-8"></path>
            </g>
        </g>
    </g>
</svg>