<svg xmlns="http://www.w3.org/2000/svg" viewBox="5735.684 -8272.157 35.224 28.625">
  <path d="M35.223,3.388a14.437,14.437,0,0,1-4.149,1.137,7.25,7.25,0,0,0,3.177-4,14.41,14.41,0,0,1-4.59,1.754A7.233,7.233,0,0,0,17.347,8.872,20.509,20.509,0,0,1,2.453,1.322a7.236,7.236,0,0,0,2.236,9.648,7.218,7.218,0,0,1-3.274-.905v.092a7.237,7.237,0,0,0,5.8,7.086,7.2,7.2,0,0,1-3.261.122,7.236,7.236,0,0,0,6.749,5.02,14.493,14.493,0,0,1-8.974,3.092A15.251,15.251,0,0,1,0,25.379a20.468,20.468,0,0,0,11.078,3.246c13.293,0,20.562-11.012,20.562-20.561,0-.314-.007-.626-.022-.935A14.653,14.653,0,0,0,35.223,3.388Z" transform="translate(5735.684 -8272.157)"/>
</svg>